<svg xmlns="http://www.w3.org/2000/svg" width="2679.387" height="1068" viewBox="0 0 2679.387 1068">
  <g id="webmydesign" transform="translate(31 -3443.474)">
    <rect id="middle" width="2679.387" height="1068" rx="17" transform="translate(-31 3443.474)" fill="#fff"/>
    <path id="Path_8" data-name="Path 8" d="M893.114,2940h56.093l-11.455-12.057,39.581,17.851-39.581,20.39,11.455-13.074H893.114Z" transform="translate(-282.832 621.208)" fill="#010101"/>
    <g id="Group_15" data-name="Group 15" transform="translate(11 3485)">
      <g id="Group_10" data-name="Group 10" transform="translate(11)">
        <g id="Group_8" data-name="Group 8">
          <rect id="Rectangle_4" data-name="Rectangle 4" width="453" height="138" rx="38"/>
          <text id="USER_RESEARCH" data-name="USER RESEARCH" transform="translate(97 60)" fill="#fff" font-size="36" font-family="Sylfaen"><tspan x="0" y="0">USER RESEARCH</tspan></text>
        </g>
        <g id="Group_9" data-name="Group 9" transform="translate(213 75)">
          <circle id="Ellipse_2" data-name="Ellipse 2" cx="18" cy="18" r="18" transform="translate(0 2)" fill="#fff"/>
          <text id="_1" data-name="1" transform="translate(10 31)" fill="#040404" font-size="31" font-family="Sylfaen"><tspan x="0" y="0">1</tspan></text>
        </g>
      </g>
      <g id="Group_11" data-name="Group 11" transform="translate(16.608 121.328)">
        <path id="Path_9" data-name="Path 9" d="M528.608,3194l2,286.106h6.033V3194Z" transform="translate(-528.608 -3194.001)"/>
        <path id="Path_10" data-name="Path 10" d="M534.178,3235.776h41.076v5.658H534.178Z" transform="translate(-527.608 -3163.328)" fill="#070707"/>
        <path id="Path_11" data-name="Path 11" d="M534.178,3235.776h41.076v5.658H534.178Z" transform="translate(-527.608 -3111.328)" fill="#070707"/>
        <path id="Path_12" data-name="Path 12" d="M534.178,3235.776h41.076v5.658H534.178Z" transform="translate(-527.608 -3059.328)" fill="#070707"/>
        <path id="Path_13" data-name="Path 13" d="M534.178,3235.776h41.076v5.658H534.178Z" transform="translate(-527.608 -3007.328)" fill="#070707"/>
        <text id="USERS_S_NEED" data-name="USERS&apos;S NEED" transform="translate(60.392 83.672)" fill="#040404" font-size="26" font-family="Biryani-Regular, Biryani"><tspan x="0" y="0">USERS&apos;S NEED</tspan></text>
        <text id="USER_S_PAIN_POINTS" data-name="USER&apos;S PAIN POINTS" transform="translate(60.392 135.672)" fill="#040404" font-size="26" font-family="Biryani-Regular, Biryani"><tspan x="0" y="0">USER&apos;S PAIN POINTS</tspan></text>
        <text id="USER_S_TECHNICAL_LIMITATIONS" data-name="USER&apos;S TECHNICAL  LIMITATIONS" transform="translate(60.392 187.672)" fill="#040404" font-size="26" font-family="Biryani-Regular, Biryani"><tspan x="0" y="0" xml:space="preserve">USER&apos;S TECHNICAL  LIMITATIONS</tspan></text>
        <path id="Path_14" data-name="Path 14" d="M534.178,3235.776h41.076v5.658H534.178Z" transform="translate(-531.608 -2955.328)" fill="#070707"/>
        <text id="TIME_WHEN_USER_MOSTLY_USES_OUR_PRODUCT" data-name="TIME WHEN USER MOSTLY USES OUR PRODUCT" transform="translate(60.392 298.672)" fill="#040404" font-size="26" font-family="Biryani-Regular, Biryani"><tspan x="0" y="0">TIME WHEN USER MOSTLY USES OUR PRODUCT</tspan></text>
        <text id="USERS_S_FINANCIAL_LIMITATIONS" data-name="USERS&apos;S FINANCIAL LIMITATIONS" transform="translate(60.392 239.672)" fill="#040404" font-size="26" font-family="Biryani-Regular, Biryani"><tspan x="0" y="0">USERS&apos;S FINANCIAL LIMITATIONS</tspan></text>
      </g>
      <text id="_there_are_different_types_of_methods_of_user_research_Interview_Card_sorting_Online_form_Survey_reports_" data-name="* there are different types of methods of user research
     &gt; Interview , Card sorting , 
     &gt; Online form , Survey reports
" transform="translate(0 470)" fill="#040404" font-size="30" font-family="Biryani-Regular, Biryani"><tspan x="0" y="33">* there are different types of methods of user </tspan><tspan x="0" y="86">research</tspan><tspan x="0" y="139" xml:space="preserve">     &gt; Interview , Card sorting , </tspan><tspan x="0" y="192" xml:space="preserve">     &gt; Online form , Survey reports</tspan></text>
    </g>
    <g id="Group_14" data-name="Group 14" transform="translate(827.084 3485)">
      <path id="Path_7" data-name="Path 7" d="M38,0H405a38,38,0,0,1,38,38v62a38,38,0,0,1-38,38H38A38,38,0,0,1,0,100V38A38,38,0,0,1,38,0Z"/>
      <g id="Group_12" data-name="Group 12" transform="translate(222 78)">
        <circle id="Ellipse_2-2" data-name="Ellipse 2" cx="18" cy="18" r="18" transform="translate(0 2)" fill="#fff"/>
        <text id="_2" data-name="2" transform="translate(10 31)" fill="#040404" font-size="31" font-family="Sylfaen"><tspan x="0" y="0">2</tspan></text>
      </g>
      <text id="BUSINESS_RESEARCH" data-name="BUSINESS RESEARCH" transform="translate(50 63)" fill="#fff" font-size="37" font-family="Sylfaen"><tspan x="0" y="0">BUSINESS RESEARCH</tspan></text>
      <g id="Group_13" data-name="Group 13" transform="translate(8.608 119.328)">
        <path id="Path_9-2" data-name="Path 9" d="M528.608,3194l2,234.106h6.033V3194Z" transform="translate(-528.608 -3194)"/>
        <path id="Path_10-2" data-name="Path 10" d="M534.178,3235.776h41.076v5.658H534.178Z" transform="translate(-527.608 -3163.328)" fill="#070707"/>
        <path id="Path_11-2" data-name="Path 11" d="M534.178,3235.776h41.076v5.658H534.178Z" transform="translate(-527.608 -3111.328)" fill="#070707"/>
        <path id="Path_12-2" data-name="Path 12" d="M534.178,3235.776h41.076v5.658H534.178Z" transform="translate(-527.608 -3059.328)" fill="#070707"/>
        <path id="Path_13-2" data-name="Path 13" d="M534.178,3235.776h41.076v5.658H534.178Z" transform="translate(-527.608 -3007.328)" fill="#070707"/>
        <text id="SOURCE_OF_REVENUE_" data-name="SOURCE OF REVENUE {                                                                              }" transform="translate(60.392 83.672)" fill="#040404" font-size="26" font-family="Biryani-Regular, Biryani"><tspan x="0" y="0" xml:space="preserve">SOURCE OF REVENUE {                                                                              }</tspan></text>
        <text id="ANALYSIS_OF_COMPETING_SOLUTIONS" data-name="ANALYSIS OF COMPETING  SOLUTIONS" transform="translate(60.392 135.672)" fill="#040404" font-size="26" font-family="Biryani-Regular, Biryani"><tspan x="0" y="0" xml:space="preserve">ANALYSIS OF COMPETING  SOLUTIONS</tspan></text>
        <text id="MARKETING_STRATEGY" data-name="MARKETING STRATEGY" transform="translate(51.392 235.672)" fill="#040404" font-size="26" font-family="Biryani-Regular, Biryani"><tspan x="0" y="0">MARKETING STRATEGY</tspan></text>
        <text id="EXISTING_USER_TRUST_ON_YOUR_PRODUCT" data-name="EXISTING USER TRUST ON YOUR PRODUCT" transform="translate(60.392 185.672)" fill="#040404" font-size="26" font-family="Biryani-Regular, Biryani"><tspan x="0" y="0">EXISTING USER TRUST ON YOUR PRODUCT</tspan></text>
        <text id="ADDS_USER_SUBSCRIPTION_PRODUCT_SELLING_" data-name="ADDS / USER SUBSCRIPTION / PRODUCT SELLING " transform="translate(366.409 80.146)" fill="#040404" font-size="17" font-family="Biryani-Bold, Biryani" font-weight="700"><tspan x="0" y="0">ADDS / USER SUBSCRIPTION / PRODUCT SELLING </tspan></text>
      </g>
    </g>
    <path id="Path_16" data-name="Path 16" d="M893.114,2940h56.093l-11.455-12.057,39.581,17.851-39.581,20.39,11.455-13.074H893.114Z" transform="translate(634.235 621.222)" fill="#010101"/>
    <g id="Group_23" data-name="Group 23" transform="translate(1714.864 3485)">
      <g id="Group_16" data-name="Group 16">
        <path id="Path_7-2" data-name="Path 7" d="M38,0H405a38,38,0,0,1,38,38v62a38,38,0,0,1-38,38H38A38,38,0,0,1,0,100V38A38,38,0,0,1,38,0Z"/>
        <g id="Group_12-2" data-name="Group 12" transform="translate(212 74)">
          <circle id="Ellipse_2-3" data-name="Ellipse 2" cx="18" cy="18" r="18" transform="translate(0 2)" fill="#fff"/>
          <text id="_3" data-name="3" transform="translate(10 31)" fill="#040404" font-size="31" font-family="Sylfaen"><tspan x="0" y="0">3</tspan></text>
        </g>
        <text id="DESIGNING" transform="translate(131 58)" fill="#fff" font-size="37" font-family="Sylfaen"><tspan x="0" y="0">DESIGNING</tspan></text>
        <g id="Group_13-2" data-name="Group 13" transform="translate(15.608 121.328)">
          <path id="Path_9-3" data-name="Path 9" d="M528.608,3194l1.636,357.106h4.935V3194Z" transform="translate(-528.608 -3194)"/>
          <path id="Path_10-3" data-name="Path 10" d="M534.178,3235.776h41.076v5.658H534.178Z" transform="translate(-527.608 -3163.328)" fill="#070707"/>
          <path id="Path_12-3" data-name="Path 12" d="M534.178,3235.776h41.076v5.658H534.178Z" transform="translate(-527.608 -3004.328)" fill="#070707"/>
          <path id="Path_13-3" data-name="Path 13" d="M534.178,3235.776h41.076v5.658H534.178Z" transform="translate(-527.608 -2884.328)" fill="#070707"/>
          <text id="DESIGN_ALL_COMPONENTS_SEPARATELY_MODULAR_DESIGN_" data-name="DESIGN ALL COMPONENTS
SEPARATELY ( MODULAR DESIGN )" transform="translate(64.528 242.146)" fill="#040404" font-size="25" font-family="Biryani-Regular, Biryani"><tspan x="0" y="0">DESIGN ALL COMPONENTS</tspan><tspan x="0" y="44">SEPARATELY ( MODULAR DESIGN )</tspan></text>
          <text id="WRITING_DOWN_OF_DESIGNSTRATEGY_" data-name="WRITING DOWN OF DESIGNSTRATEGY " transform="translate(64.528 360.146)" fill="#040404" font-size="25" font-family="Biryani-Regular, Biryani"><tspan x="0" y="0">WRITING DOWN OF DESIGNSTRATEGY </tspan></text>
        </g>
      </g>
      <text id="SELECTING_COLORS_SHAPES_MICROANIMATIONS_SOUNDS_RECALL_VALUE_ETC_..._ACCORDING_TO_BRAND_IDENTITY_" data-name="SELECTING COLORS , SHAPES , MICROANIMATIONS , SOUNDS ,
RECALL VALUE ETC ... 
( ACCORDING TO BRAND IDENTITY )" transform="translate(86.136 209.474)" fill="#040404" font-size="25" font-family="Biryani-SemiBold, Biryani" font-weight="600"><tspan x="0" y="0">SELECTING </tspan><tspan y="0" font-family="Biryani-Light, Biryani" font-weight="300">COLORS </tspan><tspan y="0">, SHAPES , </tspan><tspan y="0" font-family="Biryani-Light, Biryani" font-weight="300">MICROANIMATIONS </tspan><tspan y="0">, SOUNDS ,</tspan><tspan y="0" font-family="Biryani-Light, Biryani" font-weight="300"></tspan><tspan font-family="Biryani-Light, Biryani" font-weight="300"><tspan x="0" y="44">RECALL VALUE </tspan><tspan y="44" font-family="Biryani-SemiBold, Biryani" font-weight="600">ETC ... </tspan></tspan><tspan x="0" y="88">( ACCORDING TO BRAND IDENTITY )</tspan></text>
    </g>
    <path id="Path_17" data-name="Path 17" d="M0,15.259H58.337L46.424,0,87.588,22.592,46.424,48.4,58.337,31.851H0Z" transform="translate(1967.695 4059.783) rotate(90)" fill="#010101"/>
    <g id="Group_17" data-name="Group 17" transform="translate(1721.864 4181.412)">
      <path id="Path_7-3" data-name="Path 7" d="M38,0H405c20.987,0,38,11.072,38,24.731V65.082c0,13.659-17.013,24.731-38,24.731H38c-20.987,0-38-11.072-38-24.731V24.731C0,11.072,17.013,0,38,0Z" transform="translate(0 0)"/>
      <g id="Group_12-3" data-name="Group 12" transform="translate(367 26)">
        <circle id="Ellipse_2-4" data-name="Ellipse 2" cx="18" cy="18" r="18" transform="translate(0 2)" fill="#fff"/>
        <text id="_4" data-name="4" transform="translate(9 31)" fill="#040404" font-size="31" font-family="Sylfaen"><tspan x="0" y="0">4</tspan></text>
      </g>
      <text id="PROTOTYPING" transform="translate(56 59)" fill="#fff" font-size="37" font-family="Sylfaen"><tspan x="0" y="0">PROTOTYPING</tspan></text>
    </g>
    <path id="Path_18" data-name="Path 18" d="M0,16.711H73.021L58.109,0l51.526,24.743L58.109,53.005,73.021,34.884H0Z" transform="translate(1639.259 4228.318) rotate(180)" fill="#010101"/>
    <g id="Group_18" data-name="Group 18" transform="translate(1011.179 4175.412)">
      <path id="Path_7-4" data-name="Path 7" d="M38,0H405c20.987,0,38,10.65,38,23.788V62.6c0,13.137-17.013,23.788-38,23.788H38c-20.987,0-38-10.65-38-23.788V23.788C0,10.65,17.013,0,38,0Z"/>
      <g id="Group_12-4" data-name="Group 12" transform="translate(360 21)">
        <circle id="Ellipse_2-5" data-name="Ellipse 2" cx="18" cy="18" r="18" transform="translate(0 2)" fill="#fff"/>
        <text id="_5" data-name="5" transform="translate(9 31)" fill="#040404" font-size="31" font-family="Sylfaen"><tspan x="0" y="0">5</tspan></text>
      </g>
      <text id="FEEDBACK" transform="translate(87 55)" fill="#fff" font-size="37" font-family="Sylfaen"><tspan x="0" y="0">FEEDBACK</tspan></text>
    </g>
    <path id="Path_19" data-name="Path 19" d="M0,13.5H59.486L47.339,0,89.314,19.988,47.339,42.819,59.486,28.18H0Z" transform="matrix(-0.695, 0.719, -0.719, -0.695, 1145.521, 4310.484)" fill="#010101"/>
    <path id="Path_20" data-name="Path 20" d="M0,8.392S51.106,29.739,102.654,29.739s82.113-12.426,82.113-12.426L157.826,12.7,231.273,0,178.932,52.706,190.348,31.7s-33.293,14.324-87.43,12.337S.314,24.081.314,24.081Z" transform="translate(1483.908 4270.947) rotate(1)" fill="#010101"/>
    <text id="GOOD" transform="matrix(0.719, -0.695, 0.695, 0.719, 1046.932, 4332.474)" fill="#040404" font-size="20" font-family="Biryani-Bold, Biryani" font-weight="700"><tspan x="0" y="0">GOOD</tspan></text>
    <g id="Group_19" data-name="Group 19" transform="translate(660.193 4392.848)">
      <path id="Path_7-5" data-name="Path 7" d="M38,0H405c20.987,0,38,11.873,38,26.518V69.785C443,84.431,425.987,96.3,405,96.3H38C17.013,96.3,0,84.431,0,69.785V26.518C0,11.873,17.013,0,38,0Z"/>
      <g id="Group_12-5" data-name="Group 12" transform="translate(384 28)">
        <circle id="Ellipse_2-6" data-name="Ellipse 2" cx="18" cy="18" r="18" transform="translate(0 2)" fill="#fff"/>
        <text id="_6" data-name="6" transform="translate(9 31)" fill="#040404" font-size="31" font-family="Sylfaen"><tspan x="0" y="0">6</tspan></text>
      </g>
      <text id="DEVELOPMENT" transform="translate(63 62)" fill="#fff" font-size="37" font-family="Sylfaen"><tspan x="0" y="0">DEVELOPMENT</tspan></text>
    </g>
    <text id="BAD" transform="matrix(1, -0.017, 0.017, 1, 1570.043, 4294.487)" fill="#040404" font-size="21" font-family="Biryani-Bold, Biryani" font-weight="700"><tspan x="0" y="0">BAD</tspan></text>
  </g>
</svg>
